<svg width="159" height="80" viewBox="0 0 159 80" fill="none" xmlns="http://www.w3.org/2000/svg">
<path d="M97.1718 65.0156L99.4245 62.3377H99.7647V67.5325H98.8368V64.2896L97.2337 66.2127H97.1074L95.4965 64.2896V67.5325H94.5686V62.3377H94.914L97.1718 65.0156Z" fill="url(#paint0_linear_155_171)"/>
<path d="M104.586 66.4629H102.213L101.71 67.5325H100.804V67.42L103.213 62.3377H103.613L106 67.42V67.5325H105.104L104.586 66.4629ZM103.408 63.6776L102.495 65.7402H104.311L103.408 63.6776Z" fill="url(#paint1_linear_155_171)"/>
<path d="M110.907 67.5325L107.814 64.0061L107.871 65.648V67.5253H107.039V62.3377H107.342L110.416 65.8161L110.358 64.2365V62.3521H111.196V67.5325H110.907Z" fill="url(#paint2_linear_155_171)"/>
<path d="M116.015 66.4629H113.642L113.141 67.5325H112.235V67.42L114.644 62.3377H115.044L117.431 67.42V67.5325H116.535L116.015 66.4629ZM114.827 63.6776L113.914 65.7402H115.731L114.827 63.6776Z" fill="url(#paint3_linear_155_171)"/>
<path d="M118.473 64.9171C118.457 64.5694 118.518 64.2224 118.653 63.8991C118.787 63.5758 118.991 63.2835 119.251 63.0417C119.501 62.811 119.796 62.6301 120.118 62.5093C120.441 62.3886 120.786 62.3305 121.132 62.3384C121.656 62.3277 122.171 62.4646 122.615 62.7322C123.053 63.0064 123.366 63.4305 123.491 63.9184H122.627C122.352 63.3699 121.849 63.0956 121.125 63.0956C120.884 63.0856 120.644 63.1274 120.422 63.2178C120.2 63.3082 120.001 63.4451 119.841 63.6184C119.529 63.9895 119.358 64.4525 119.358 64.93C119.358 65.4076 119.529 65.8706 119.841 66.2417C120.003 66.4125 120.202 66.547 120.424 66.6358C120.645 66.7245 120.885 66.7652 121.125 66.7551C122.125 66.7551 122.694 66.3175 122.832 65.4423H121.195V64.739H123.657C123.693 65.2037 123.629 65.6706 123.469 66.1104C123.296 66.5516 122.975 66.9247 122.556 67.17C122.127 67.4153 121.634 67.5404 121.134 67.5311C120.779 67.5426 120.424 67.4829 120.094 67.3558C119.763 67.2287 119.464 67.0369 119.214 66.7927C118.965 66.5484 118.771 66.257 118.645 65.937C118.519 65.6169 118.464 65.2752 118.483 64.9335L118.473 64.9171Z" fill="url(#paint4_linear_155_171)"/>
<path d="M127.781 62.3377V63.0946H125.55V64.4662H127.659V65.2304H125.55V66.7442H127.824V67.5325H124.706V62.3377H127.781Z" fill="url(#paint5_linear_155_171)"/>
<path d="M131.469 65.0156L133.717 62.3377H134.059V67.5325H133.125V64.2896L131.525 66.2127H131.399L129.791 64.2896V67.5325H128.863V62.3377H129.205L131.469 65.0156Z" fill="url(#paint6_linear_155_171)"/>
<path d="M139.213 62.3377V63.0946H136.98V64.4662H139.093V65.2304H136.98V66.7442H139.255V67.5325H136.137V62.3377H139.213Z" fill="url(#paint7_linear_155_171)"/>
<path d="M144.171 67.5325L141.067 64.0061L141.125 65.648V67.5253H140.294V62.3377H140.597L143.669 65.8161L143.613 64.2365V62.3521H144.451V67.5325H144.171Z" fill="url(#paint8_linear_155_171)"/>
<path d="M147.114 63.1018H145.49V62.3377H149.647V63.1018H148.023V67.5325H147.114V63.1018Z" fill="url(#paint9_linear_155_171)"/>
<path d="M98.4826 71.0737C98.4952 71.2824 98.441 71.4898 98.3272 71.6683C98.2133 71.8468 98.0452 71.9879 97.8453 72.0727C98.1143 72.1458 98.3486 72.3056 98.5083 72.525C98.6681 72.7444 98.7435 73.0098 98.7218 73.2763C98.7319 73.4828 98.6955 73.6889 98.6152 73.8808C98.5348 74.0726 98.4123 74.2458 98.2559 74.3885C97.9089 74.6786 97.4568 74.8272 96.9966 74.8025H94.5686V69.6125H96.7699C97.2159 69.5918 97.6548 69.7251 98.0065 69.988C98.1675 70.1221 98.2941 70.2897 98.3766 70.4779C98.4592 70.6661 98.4954 70.87 98.4826 71.0737ZM96.7195 70.3515H95.4778V71.7814H96.7195C97.3038 71.7814 97.5985 71.5495 97.6035 71.0857C97.6115 70.9826 97.5943 70.8791 97.5532 70.7834C97.5121 70.6877 97.4483 70.6025 97.3668 70.5345C97.1768 70.4065 96.9463 70.3452 96.7145 70.3611L96.7195 70.3515ZM96.8505 72.4868H95.4778V74.0346H96.9512C97.1794 74.0449 97.4033 73.9727 97.5783 73.8324C97.6594 73.7597 97.7237 73.6716 97.767 73.5738C97.8104 73.4759 97.8319 73.3705 97.8302 73.2643C97.8365 73.1483 97.8145 73.0325 97.766 72.9259C97.7174 72.8194 97.6437 72.7251 97.5506 72.6504C97.3378 72.5308 97.0915 72.4769 96.8454 72.4964L96.8505 72.4868Z" fill="url(#paint10_linear_155_171)"/>
<path d="M101.162 74.1085H101.843V74.8052H99.7647V74.1085H100.446V70.3022H99.8186V69.6104H101.789V70.3022H101.162V74.1085Z" fill="url(#paint11_linear_155_171)"/>
<path d="M102.885 72.1911C102.869 71.8432 102.931 71.4961 103.065 71.1727C103.199 70.8493 103.403 70.5568 103.663 70.3147C103.913 70.0842 104.208 69.9034 104.53 69.7826C104.853 69.6619 105.198 69.6036 105.544 69.611C106.067 69.6015 106.582 69.7375 107.027 70.0027C107.464 70.2788 107.777 70.7035 107.903 71.1919H107.039C106.763 70.643 106.261 70.3686 105.536 70.3686C105.295 70.3588 105.055 70.4006 104.832 70.4911C104.61 70.5815 104.411 70.7184 104.251 70.8917C103.943 71.2649 103.775 71.7274 103.775 72.204C103.775 72.6805 103.943 73.143 104.251 73.5163C104.413 73.687 104.612 73.8214 104.834 73.9102C105.056 73.9989 105.296 74.0398 105.536 74.0299C106.537 74.0299 107.106 73.5913 107.244 72.7141H105.607V72.0105H108.069C108.105 72.4754 108.041 72.9425 107.881 73.3826C107.708 73.824 107.387 74.1972 106.968 74.4427C106.539 74.6882 106.046 74.8133 105.546 74.804C105.191 74.8148 104.836 74.7546 104.506 74.6271C104.176 74.4997 103.877 74.3078 103.628 74.0636C103.378 73.8194 103.185 73.5281 103.058 73.2083C102.932 72.8884 102.876 72.5468 102.894 72.2051L102.885 72.1911Z" fill="url(#paint12_linear_155_171)"/>
<path d="M111.196 72.9974H112.044C112.051 73.2013 112.126 73.394 112.255 73.534C112.384 73.6786 112.543 73.7833 112.716 73.8387C112.902 73.8985 113.094 73.9277 113.286 73.9254C113.581 73.936 113.873 73.8621 114.137 73.7101C114.251 73.6437 114.345 73.5398 114.408 73.4114C114.471 73.2831 114.499 73.1361 114.49 72.989C114.494 72.852 114.464 72.7164 114.405 72.5977C114.357 72.4966 114.291 72.4081 114.212 72.3377C114.115 72.266 114.008 72.214 113.895 72.184C113.784 72.1466 113.671 72.1176 113.557 72.0974C113.47 72.0974 113.344 72.0666 113.182 72.0498C111.916 71.9231 111.283 71.3725 111.283 70.3979C111.273 70.1356 111.319 69.8745 111.419 69.6385C111.519 69.4026 111.668 69.1995 111.853 69.0478C112.26 68.7218 112.746 68.5552 113.24 68.5727C113.726 68.5562 114.204 68.7091 114.613 69.0115C114.797 69.155 114.947 69.3504 115.048 69.5792C115.149 69.808 115.198 70.0628 115.19 70.3196H114.371C114.368 70.2246 114.349 70.1313 114.314 70.0449C114.28 69.9586 114.231 69.8809 114.171 69.8165C114.053 69.6835 113.909 69.5873 113.75 69.537C113.582 69.485 113.408 69.4596 113.233 69.4615C112.968 69.4571 112.706 69.5333 112.474 69.6824C112.368 69.7479 112.28 69.8471 112.22 69.9683C112.161 70.0896 112.133 70.2279 112.138 70.3672C112.137 70.4874 112.163 70.606 112.213 70.711C112.255 70.797 112.311 70.8729 112.378 70.9346C112.463 70.9985 112.557 71.0466 112.656 71.0771C112.784 71.1191 112.897 71.1498 112.965 71.1666C113.033 71.1833 113.165 71.2029 113.33 71.2281C113.571 71.2616 113.786 71.2952 113.956 71.3287C114.139 71.3699 114.32 71.4298 114.495 71.5076C114.662 71.574 114.817 71.6774 114.951 71.8122C115.074 71.9472 115.172 72.1099 115.239 72.2902C115.32 72.5119 115.358 72.7512 115.352 72.9918C115.357 73.285 115.295 73.5744 115.171 73.8303C115.055 74.0621 114.888 74.2547 114.688 74.3894C114.486 74.5297 114.267 74.6342 114.038 74.6996C113.801 74.7688 113.557 74.8035 113.313 74.8031C112.976 74.8174 112.639 74.7596 112.32 74.6325C112.014 74.5115 111.743 74.2971 111.534 74.012C111.321 73.7312 111.201 73.3714 111.196 72.9974Z" fill="url(#paint13_linear_155_171)"/>
<path d="M119.465 69.6104V70.3673H117.236V71.7413H119.346V72.5055H117.236V74.0193H119.51V74.8052H116.392V69.6104H119.465Z" fill="url(#paint14_linear_155_171)"/>
<path d="M124.432 72.8631L125.745 74.6799V74.8052H124.875L123.591 72.9956H122.456V74.8052H121.588V69.6126H123.721C123.959 69.6006 124.197 69.6371 124.421 69.7199C124.645 69.8027 124.85 69.9301 125.024 70.0945C125.225 70.2922 125.372 70.5378 125.453 70.8085C125.534 71.0792 125.545 71.3661 125.485 71.6422C125.426 71.9184 125.297 72.1748 125.112 72.3875C124.927 72.6002 124.692 72.7622 124.427 72.8583L124.432 72.8631ZM122.441 72.2848H123.716C123.843 72.2881 123.969 72.2655 124.086 72.2182C124.204 72.1709 124.311 72.1001 124.401 72.0099C124.49 71.9197 124.561 71.8121 124.608 71.6937C124.655 71.5753 124.677 71.4485 124.674 71.321C124.678 71.1953 124.655 71.0702 124.608 70.9537C124.561 70.8372 124.491 70.7317 124.401 70.6439C124.309 70.5541 124.2 70.4838 124.081 70.437C123.962 70.3903 123.834 70.368 123.706 70.3716H122.432L122.441 72.2848Z" fill="url(#paint15_linear_155_171)"/>
<path d="M128.34 73.2974H128.364L129.116 71.4288L129.94 69.6104H130.941V69.737L128.558 74.8052H128.166L125.745 69.737V69.6104H126.751L127.567 71.3906L128.34 73.2974Z" fill="url(#paint16_linear_155_171)"/>
<path d="M133.031 74.1085H134.059V74.8052H130.941V74.1085H131.96V70.3022H131.019V69.6104H133.972V70.3022H133.034L133.031 74.1085Z" fill="url(#paint17_linear_155_171)"/>
<path d="M135.102 72.2049C135.086 71.8552 135.149 71.5063 135.286 71.1811C135.424 70.856 135.632 70.562 135.899 70.3185C136.421 69.8495 137.119 69.5951 137.839 69.6111C138.193 69.6082 138.544 69.6698 138.873 69.7927C139.207 69.9185 139.506 70.1145 139.747 70.3657C140.005 70.6319 140.185 70.957 140.269 71.3089H139.408C139.158 70.7005 138.621 70.3893 137.832 70.3798C137.585 70.37 137.338 70.4106 137.11 70.4989C136.881 70.5873 136.675 70.7212 136.506 70.8915C136.164 71.2559 135.986 71.7307 136.006 72.2167C135.989 72.6924 136.168 73.1558 136.506 73.5089C136.673 73.6808 136.877 73.8165 137.104 73.9068C137.332 73.9972 137.577 74.04 137.824 74.0324C138.177 74.0402 138.525 73.9492 138.823 73.7707C139.109 73.5917 139.322 73.3253 139.425 73.0161H140.294C140.247 73.2821 140.144 73.5365 139.992 73.7647C139.839 73.993 139.641 74.1906 139.408 74.3461C138.877 74.6819 138.243 74.8411 137.605 74.7984C136.968 74.7557 136.364 74.5135 135.889 74.1103C135.621 73.8644 135.412 73.567 135.276 73.2383C135.141 72.9096 135.081 72.5572 135.102 72.2049Z" fill="url(#paint18_linear_155_171)"/>
<path d="M144.406 69.6104V70.3673H142.169V71.7413H144.286V72.5055H142.169V74.0193H144.451V74.8052H141.333V69.6104H144.406Z" fill="url(#paint19_linear_155_171)"/>
<path d="M145.49 72.9914H146.335C146.342 73.1954 146.418 73.3878 146.547 73.5274C146.676 73.6717 146.834 73.7763 147.008 73.8317C147.193 73.8914 147.385 73.9205 147.577 73.9182C147.871 73.9288 148.163 73.855 148.426 73.7032C148.539 73.6366 148.633 73.5327 148.696 73.4046C148.759 73.2765 148.787 73.1299 148.778 72.9831C148.781 72.8464 148.752 72.7114 148.694 72.5923C148.646 72.4913 148.58 72.4029 148.501 72.3327C148.404 72.261 148.297 72.2091 148.185 72.1792C148.074 72.1421 147.961 72.1132 147.847 72.0926C147.76 72.0926 147.635 72.0619 147.471 72.0452C146.208 71.9186 145.577 71.3687 145.577 70.3955C145.567 70.1335 145.613 69.8727 145.713 69.6371C145.812 69.4015 145.961 69.1986 146.146 69.0472C146.552 68.7216 147.037 68.5552 147.531 68.5727C148.015 68.5562 148.493 68.7089 148.901 69.0109C149.085 69.1542 149.235 69.3493 149.336 69.5779C149.436 69.8064 149.485 70.0608 149.478 70.3173H148.66C148.657 70.2224 148.638 70.1292 148.603 70.0429C148.569 69.9567 148.52 69.8792 148.46 69.8148C148.343 69.682 148.198 69.586 148.04 69.5357C147.872 69.4837 147.698 69.4584 147.524 69.4603C147.259 69.456 146.998 69.532 146.766 69.6809C146.66 69.7463 146.572 69.8454 146.513 69.9665C146.454 70.0876 146.425 70.2257 146.431 70.3648C146.429 70.4848 146.455 70.6033 146.506 70.7081C146.548 70.794 146.603 70.8698 146.67 70.9314C146.755 70.9952 146.849 71.0432 146.947 71.0738C147.075 71.1156 147.189 71.1463 147.256 71.1631C147.324 71.1798 147.456 71.1994 147.62 71.2245C147.862 71.258 148.076 71.2915 148.245 71.325C148.429 71.3662 148.609 71.4259 148.783 71.5036C148.951 71.5699 149.106 71.6733 149.239 71.8079C149.365 71.9444 149.465 72.1098 149.533 72.2936C149.613 72.5155 149.651 72.7541 149.647 72.9942C149.652 73.287 149.589 73.576 149.466 73.8317C149.35 74.0631 149.183 74.2555 148.983 74.3899C148.781 74.5305 148.561 74.635 148.332 74.6998C148.095 74.7692 147.852 74.8039 147.608 74.8031C147.272 74.8174 146.935 74.7597 146.617 74.6328C146.312 74.5119 146.041 74.2978 145.833 74.0131C145.616 73.7313 145.495 73.3686 145.49 72.9914Z" fill="url(#paint20_linear_155_171)"/>
<path d="M112.235 21.8182V49.8701H106.841V31.676L99.0698 44.7024H98.4404L90.6695 31.7178V49.8701H85.2157V21.8182H90.8236L98.7538 35.0821L106.643 21.8182H112.235Z" fill="url(#paint21_linear_155_171)"/>
<path d="M132.424 35.3235C134.899 36.738 136.137 38.8754 136.137 41.7356C136.137 44.114 135.29 46.0634 133.596 47.584C131.901 49.1046 129.816 49.8667 127.34 49.8701H115.353V21.8182H126.497C128.92 21.8182 130.959 22.5594 132.613 24.0417C133.419 24.7494 134.058 25.6239 134.487 26.6037C134.916 27.5835 135.123 28.6447 135.094 29.7126C135.09 32.0387 134.2 33.9091 132.424 35.3235ZM126.497 26.9881H120.928V33.1653H126.497C126.899 33.1759 127.298 33.1032 127.67 32.9517C128.042 32.8003 128.378 32.5735 128.657 32.2858C128.943 31.9949 129.168 31.6497 129.317 31.2708C129.466 30.8919 129.536 30.4871 129.525 30.0806C129.537 29.6759 129.468 29.2729 129.322 28.8949C129.177 28.5168 128.957 28.1711 128.676 27.878C128.397 27.585 128.058 27.3542 127.682 27.2008C127.307 27.0474 126.903 26.9749 126.497 26.9881ZM127.346 44.7003C127.78 44.7131 128.212 44.6359 128.615 44.4737C129.018 44.3115 129.382 44.0678 129.685 43.7582C129.994 43.4432 130.235 43.0695 130.395 42.6597C130.555 42.2498 130.63 41.8122 130.615 41.3729C130.628 40.9393 130.552 40.5077 130.392 40.1041C130.232 39.7004 129.991 39.3331 129.685 39.0241C129.381 38.7156 129.017 38.4727 128.614 38.3106C128.212 38.1484 127.78 38.0706 127.346 38.082H120.928V44.7003H127.346Z" fill="url(#paint22_linear_155_171)"/>
<path d="M149.025 49.8701C146.298 49.8701 144.006 49.2706 142.148 48.0716C140.321 46.9223 138.938 45.209 138.216 43.2026L142.853 40.5434C143.926 43.284 146.035 44.6543 149.179 44.6543C150.696 44.6543 151.81 44.3845 152.519 43.845C152.867 43.5946 153.145 43.2632 153.33 42.8809C153.514 42.4986 153.598 42.0773 153.575 41.655C153.551 41.2328 153.421 40.8229 153.196 40.4624C152.97 40.1019 152.657 39.8021 152.283 39.5901C151.409 39.066 149.864 38.4947 147.646 37.8764C146.584 37.578 145.542 37.2186 144.523 36.7998C143.62 36.4122 142.764 35.9279 141.97 35.3558C141.131 34.7688 140.461 33.9793 140.025 33.0639C139.559 32.0478 139.331 30.9427 139.356 29.8291C139.356 27.3899 140.24 25.4458 142.009 23.9967C143.778 22.5475 145.906 21.8221 148.393 21.8204C150.468 21.7783 152.51 22.334 154.265 23.4186C155.979 24.5112 157.348 26.0517 158.216 27.8661L153.657 30.4355C152.559 28.1265 150.805 26.9711 148.393 26.9694C147.265 26.9694 146.381 27.2195 145.74 27.7197C145.434 27.9461 145.187 28.2405 145.02 28.5786C144.852 28.9168 144.769 29.289 144.778 29.6647C144.771 30.0679 144.867 30.4664 145.055 30.8249C145.244 31.1834 145.519 31.4909 145.858 31.7202C146.579 32.2477 147.961 32.819 150.002 33.4339C150.841 33.6909 151.477 33.8896 151.908 34.03C152.34 34.1705 152.93 34.3889 153.678 34.6852C154.278 34.9099 154.856 35.1867 155.406 35.5125C155.892 35.8256 156.358 36.1689 156.8 36.5403C157.274 36.9202 157.679 37.3753 157.998 37.8866C158.664 39.0509 159.009 40.365 159 41.6996C159 44.1901 158.077 46.1668 156.231 47.6297C154.386 49.0925 151.984 49.8393 149.025 49.8701Z" fill="url(#paint23_linear_155_171)"/>
<path d="M159 57.1429V56.1039L85.2157 56.1039V57.1429L159 57.1429Z" fill="url(#paint24_linear_155_171)"/>
<path d="M0 21.8182V59.2208L6.13632 62.7844V33.5637L13.0397 37.5688V66.7896L19.176 70.3532V41.1325L26.0794 45.1948V74.3611L32.2157 77.9221V40.5195L0 21.8182Z" fill="url(#paint25_linear_155_171)"/>
<path d="M37.4117 42.7636L74.8235 21.8182V28.8L44.4264 45.0909V54.4L74.8235 38.1091V59.0546L37.4117 80V73.0182L70.147 54.4V47.4182L37.4117 66.0364V42.7636Z" fill="url(#paint26_linear_155_171)"/>
<path d="M0 17.4706L37.4118 38.4416L74.8235 17.4706L53.7794 5.82008L31.7039 19.024L37.4118 22.2214L53.7794 12.8104L63.1323 17.4706L37.4118 31.4512L11.6912 17.4706L30.2983 7.16896L30.4386 14.5036L37.4118 10.2162V3.46409L31.1687 0L0 17.4706Z" fill="url(#paint27_linear_155_171)"/>
<defs>
<linearGradient id="paint0_linear_155_171" x1="94.4758" y1="67.4435" x2="99.4855" y2="62.0747" gradientUnits="userSpaceOnUse">
<stop stop-color="#063A87"/>
<stop offset="0.02" stop-color="#063A86"/>
<stop offset="1" stop-color="#052862"/>
</linearGradient>
<linearGradient id="paint1_linear_155_171" x1="5525.46" y1="3430.39" x2="5612.05" y2="3343.77" gradientUnits="userSpaceOnUse">
<stop stop-color="#063A87"/>
<stop offset="0.02" stop-color="#063A86"/>
<stop offset="1" stop-color="#052862"/>
</linearGradient>
<linearGradient id="paint2_linear_155_171" x1="4533.47" y1="3412.62" x2="4632.97" y2="3333.01" gradientUnits="userSpaceOnUse">
<stop stop-color="#063A87"/>
<stop offset="0.02" stop-color="#063A86"/>
<stop offset="1" stop-color="#052862"/>
</linearGradient>
<linearGradient id="paint3_linear_155_171" x1="5769.15" y1="3430.39" x2="5855.75" y2="3343.77" gradientUnits="userSpaceOnUse">
<stop stop-color="#063A87"/>
<stop offset="0.02" stop-color="#063A86"/>
<stop offset="1" stop-color="#052862"/>
</linearGradient>
<linearGradient id="paint4_linear_155_171" x1="5894.38" y1="3402.6" x2="5976.25" y2="3320.71" gradientUnits="userSpaceOnUse">
<stop stop-color="#063A87"/>
<stop offset="0.02" stop-color="#063A86"/>
<stop offset="1" stop-color="#052862"/>
</linearGradient>
<linearGradient id="paint5_linear_155_171" x1="3652.76" y1="3406.91" x2="3732.2" y2="3359.23" gradientUnits="userSpaceOnUse">
<stop stop-color="#063A87"/>
<stop offset="0.02" stop-color="#063A86"/>
<stop offset="1" stop-color="#052862"/>
</linearGradient>
<linearGradient id="paint6_linear_155_171" x1="6110.07" y1="3415.74" x2="6218.59" y2="3307.25" gradientUnits="userSpaceOnUse">
<stop stop-color="#063A87"/>
<stop offset="0.02" stop-color="#063A86"/>
<stop offset="1" stop-color="#052862"/>
</linearGradient>
<linearGradient id="paint7_linear_155_171" x1="3799.12" y1="3406.91" x2="3878.57" y2="3359.23" gradientUnits="userSpaceOnUse">
<stop stop-color="#063A87"/>
<stop offset="0.02" stop-color="#063A86"/>
<stop offset="1" stop-color="#052862"/>
</linearGradient>
<linearGradient id="paint8_linear_155_171" x1="5102.67" y1="3412.62" x2="5202.13" y2="3333" gradientUnits="userSpaceOnUse">
<stop stop-color="#063A87"/>
<stop offset="0.02" stop-color="#063A86"/>
<stop offset="1" stop-color="#052862"/>
</linearGradient>
<linearGradient id="paint9_linear_155_171" x1="5199.78" y1="3386.08" x2="5279.1" y2="3322.61" gradientUnits="userSpaceOnUse">
<stop stop-color="#063A87"/>
<stop offset="0.02" stop-color="#063A86"/>
<stop offset="1" stop-color="#052862"/>
</linearGradient>
<linearGradient id="paint10_linear_155_171" x1="4320.02" y1="3557.71" x2="4405.37" y2="3489.42" gradientUnits="userSpaceOnUse">
<stop stop-color="#063A87"/>
<stop offset="0.02" stop-color="#063A86"/>
<stop offset="1" stop-color="#052862"/>
</linearGradient>
<linearGradient id="paint11_linear_155_171" x1="2251.13" y1="3554.86" x2="2307.89" y2="3532.15" gradientUnits="userSpaceOnUse">
<stop stop-color="#063A87"/>
<stop offset="0.02" stop-color="#063A86"/>
<stop offset="1" stop-color="#052862"/>
</linearGradient>
<linearGradient id="paint12_linear_155_171" x1="5576.95" y1="3553.92" x2="5658.82" y2="3472.03" gradientUnits="userSpaceOnUse">
<stop stop-color="#063A87"/>
<stop offset="0.02" stop-color="#063A86"/>
<stop offset="1" stop-color="#052862"/>
</linearGradient>
<linearGradient id="paint13_linear_155_171" x1="4612.75" y1="4249.81" x2="4701.72" y2="4190.48" gradientUnits="userSpaceOnUse">
<stop stop-color="#063A87"/>
<stop offset="0.02" stop-color="#063A86"/>
<stop offset="1" stop-color="#052862"/>
</linearGradient>
<linearGradient id="paint14_linear_155_171" x1="3549.51" y1="3558.23" x2="3628.96" y2="3510.56" gradientUnits="userSpaceOnUse">
<stop stop-color="#063A87"/>
<stop offset="0.02" stop-color="#063A86"/>
<stop offset="1" stop-color="#052862"/>
</linearGradient>
<linearGradient id="paint15_linear_155_171" x1="4777.11" y1="3563.48" x2="4862.97" y2="3494.78" gradientUnits="userSpaceOnUse">
<stop stop-color="#063A87"/>
<stop offset="0.02" stop-color="#063A86"/>
<stop offset="1" stop-color="#052862"/>
</linearGradient>
<linearGradient id="paint16_linear_155_171" x1="6054.37" y1="3531.74" x2="6138.16" y2="3447.93" gradientUnits="userSpaceOnUse">
<stop stop-color="#063A87"/>
<stop offset="0.02" stop-color="#063A86"/>
<stop offset="1" stop-color="#052862"/>
</linearGradient>
<linearGradient id="paint17_linear_155_171" x1="3740.74" y1="3554.86" x2="3813.35" y2="3511.28" gradientUnits="userSpaceOnUse">
<stop stop-color="#063A87"/>
<stop offset="0.02" stop-color="#063A86"/>
<stop offset="1" stop-color="#052862"/>
</linearGradient>
<linearGradient id="paint18_linear_155_171" x1="6247.14" y1="3553.77" x2="6328.39" y2="3472.45" gradientUnits="userSpaceOnUse">
<stop stop-color="#063A87"/>
<stop offset="0.02" stop-color="#063A86"/>
<stop offset="1" stop-color="#052862"/>
</linearGradient>
<linearGradient id="paint19_linear_155_171" x1="3869.7" y1="3558.23" x2="3949.14" y2="3510.56" gradientUnits="userSpaceOnUse">
<stop stop-color="#063A87"/>
<stop offset="0.02" stop-color="#063A86"/>
<stop offset="1" stop-color="#052862"/>
</linearGradient>
<linearGradient id="paint20_linear_155_171" x1="5196.54" y1="4249.81" x2="5285.5" y2="4190.48" gradientUnits="userSpaceOnUse">
<stop stop-color="#063A87"/>
<stop offset="0.02" stop-color="#063A86"/>
<stop offset="1" stop-color="#052862"/>
</linearGradient>
<linearGradient id="paint21_linear_155_171" x1="26634.4" y1="16191.8" x2="29615.4" y2="13320.6" gradientUnits="userSpaceOnUse">
<stop stop-color="#063A87"/>
<stop offset="0.02" stop-color="#063A86"/>
<stop offset="1" stop-color="#052862"/>
</linearGradient>
<linearGradient id="paint22_linear_155_171" x1="22706" y1="15879.9" x2="24915.5" y2="14242.8" gradientUnits="userSpaceOnUse">
<stop stop-color="#063A87"/>
<stop offset="0.02" stop-color="#063A86"/>
<stop offset="1" stop-color="#052862"/>
</linearGradient>
<linearGradient id="paint23_linear_155_171" x1="24909.6" y1="15780.3" x2="26850.4" y2="14342.3" gradientUnits="userSpaceOnUse">
<stop stop-color="#063A87"/>
<stop offset="0.02" stop-color="#063A86"/>
<stop offset="1" stop-color="#052862"/>
</linearGradient>
<linearGradient id="paint24_linear_155_171" x1="1215.88" y1="49730.7" x2="1515.12" y2="49726.5" gradientUnits="userSpaceOnUse">
<stop stop-color="#063A87"/>
<stop offset="0.02" stop-color="#063A86"/>
<stop offset="1" stop-color="#052862"/>
</linearGradient>
<linearGradient id="paint25_linear_155_171" x1="21030.1" y1="32463.3" x2="25089.3" y2="32463.3" gradientUnits="userSpaceOnUse">
<stop stop-color="#063A87"/>
<stop offset="0.02" stop-color="#063A86"/>
<stop offset="1" stop-color="#052862"/>
</linearGradient>
<linearGradient id="paint26_linear_155_171" x1="29846.7" y1="33926.7" x2="35234" y2="33926.7" gradientUnits="userSpaceOnUse">
<stop stop-color="#063A87"/>
<stop offset="0.02" stop-color="#063A86"/>
<stop offset="1" stop-color="#052862"/>
</linearGradient>
<linearGradient id="paint27_linear_155_171" x1="48844" y1="17644.7" x2="70393.2" y2="17644.7" gradientUnits="userSpaceOnUse">
<stop stop-color="#063A87"/>
<stop offset="0.02" stop-color="#063A86"/>
<stop offset="1" stop-color="#052862"/>
</linearGradient>
</defs>
</svg>
